<svg width="181" height="164" viewBox="0 0 181 164" fill="none" xmlns="http://www.w3.org/2000/svg">
<path d="M82.1725 0C36.8697 0 0 36.7777 0 81.9883C0 127.205 36.8697 164 82.1725 164C127.5 164 164.36 127.205 164.36 81.9883C164.36 36.7777 127.5 0 82.1725 0Z" fill="white"/>
<path d="M151.516 72.0073L148.706 73.8763C149.03 76.5374 149.198 79.2438 149.198 81.9911C149.198 118.871 119.13 148.873 82.1726 148.873C53.3251 148.873 28.6751 130.586 19.2537 105.017L16.7126 106.871C26.7817 133.172 52.3265 151.898 82.1726 151.898C120.803 151.898 152.228 120.539 152.228 81.9925C152.228 78.6019 151.985 75.2681 151.516 72.0073Z" fill="#082463"/>
<path d="M7.93441 94.1356L7.15222 90.4736L22.4612 92.4826L23.3867 96.8114L10.2313 104.878L9.4447 101.196L19.4377 95.3889L7.93441 94.1356Z" fill="#082463"/>
<path d="M21.9714 76.5958C21.6059 80.6969 18.2315 83.7622 13.8747 83.3756C9.51778 82.989 6.75891 79.3795 7.12442 75.2783C7.4914 71.1567 10.8395 68.1513 15.1963 68.5379C19.5547 68.9245 22.337 72.4946 21.9714 76.5958ZM18.7506 76.3098C18.9567 74.0017 17.4172 72.3487 14.8776 72.124C12.2971 71.895 10.531 73.2547 10.3248 75.5628C10.1158 77.9118 11.6143 79.54 14.1963 79.769C16.7359 79.9952 18.5415 78.6588 18.7506 76.3098Z" fill="#082463"/>
<path d="M10.0149 60.3328L14.0662 49.8516L16.7169 50.8714L15.3294 54.4619L26.2582 58.6681L24.9833 61.9683L14.0545 57.7621L12.667 61.3526L10.0149 60.3328Z" fill="#082463"/>
<path d="M25.3341 37.2152L22.277 41.6198L24.6967 43.2918L27.3985 39.3978L29.6486 40.9516L26.9467 44.8456L29.5711 46.6591L32.6268 42.2545L34.9617 43.8681L29.8869 51.1805L17.923 42.9139L22.9978 35.6016L25.3341 37.2152Z" fill="#082463"/>
<path d="M49.778 27.8284L45.2427 30.8106L45.9299 33.4309L42.8318 35.4676L39.222 20.4504L42.6491 18.1963L55.053 27.4316L51.9199 29.4916L49.778 27.8284ZM43.0745 22.6009L44.5176 28.0195L47.5118 26.0499L43.0745 22.6009Z" fill="#082463"/>
<path d="M55.0135 11.5871L59.0619 10.5206L65.5826 19.2015L66.9189 8.45031L70.9483 7.38818L74.6634 21.4293L71.2363 22.3324L69.0082 13.9127L68.09 23.1626L65.3239 23.8921L59.9231 16.2864L62.1571 24.7266L58.7301 25.6297L55.0135 11.5871Z" fill="#082463"/>
<path d="M89.0952 10.0231L83.728 9.85387L83.6344 12.7893L88.3788 12.9396L88.2925 15.6693L83.5482 15.5191L83.4473 18.7025L88.813 18.8718L88.7224 21.7051L79.8127 21.4235L80.2732 6.90967L89.1829 7.19125L89.0952 10.0231Z" fill="#082463"/>
<path d="M103.411 10.0612C106.837 11.0475 107.982 13.5088 107.28 15.9336C106.774 17.6829 105.341 19.0573 103.006 19.0733L104.635 25.5278L100.792 24.4204L99.4069 18.3161L98.5897 18.0812L97.0662 23.3481L93.6597 22.3677L97.6934 8.41406L103.411 10.0612ZM102.397 12.826L100.286 12.2176L99.2856 15.6768L101.397 16.2852C102.672 16.6529 103.458 16.1685 103.776 15.0757C104.074 14.0413 103.672 13.1937 102.397 12.826Z" fill="#082463"/>
<path d="M115.856 14.9531L118.985 16.6164L112.141 29.4334L109.013 27.7702L115.856 14.9531Z" fill="#082463"/>
<path d="M131.55 25.2855C134.167 27.5484 134.864 30.7245 133.427 33.6425L130.481 31.0951C130.841 29.7645 130.418 28.5769 129.399 27.6972C127.754 26.2747 125.567 26.5183 123.883 28.4573C122.199 30.3963 122.269 32.5906 123.914 34.0131C124.933 34.8943 126.17 35.1423 127.439 34.5966L130.385 37.144C127.695 38.9794 124.458 38.7255 121.842 36.4627C118.599 33.6585 118.307 29.3823 121.158 26.0996C124.01 22.8169 128.307 22.4814 131.55 25.2855Z" fill="#082463"/>
<path d="M137.139 50.8318L134.249 46.2433L131.608 46.8736L129.633 43.7383L144.757 40.457L146.941 43.925L137.421 56.103L135.424 52.9327L137.139 50.8318ZM142.521 44.2547L137.062 45.578L138.97 48.6083L142.521 44.2547Z" fill="#082463"/>
<path d="M82.1813 26.6816C51.6203 26.6816 26.7495 51.5031 26.7495 81.9883C26.7495 112.497 51.6203 137.318 82.1813 137.318C112.751 137.318 137.616 112.497 137.616 81.9883C137.616 51.5031 112.751 26.6816 82.1813 26.6816Z" fill="#082463"/>
<path d="M134.677 82.0235C134.677 110.948 111.174 134.39 82.1799 134.39C53.1905 134.39 29.6882 110.948 29.6882 82.0235C29.6882 53.0877 53.1905 29.6333 82.1799 29.6333C111.174 29.6333 134.677 53.0877 134.677 82.0235Z" fill="white"/>
<path d="M134.677 82.0235C134.677 110.948 111.174 134.39 82.1799 134.39C53.1905 134.39 29.6882 110.948 29.6882 82.0235C29.6882 53.0877 53.1905 29.6333 82.1799 29.6333C111.174 29.6333 134.677 53.0877 134.677 82.0235Z" fill="white"/>
<path d="M46.9857 43.1565H117.38C112.409 38.6658 106.571 35.1073 100.14 32.7788H64.226C57.8004 35.1073 51.9639 38.6658 46.9857 43.1565Z" fill="#CF2B28"/>
<path d="M32.9866 63.7047H131.373C129.946 59.8953 128.081 56.2742 125.844 52.939H38.5204C36.2849 56.2742 34.4194 59.8953 32.9866 63.7047Z" fill="#CF2B28"/>
<path d="M134.677 82.0236C134.677 78.9802 134.4 75.9878 133.898 73.0874H30.4602C29.9646 75.9878 29.6882 78.9802 29.6882 82.0236C29.6882 82.5722 29.7116 83.1105 29.7262 83.6649H134.632C134.652 83.1091 134.677 82.5722 134.677 82.0236Z" fill="#CF2B28"/>
<path d="M34.4472 103.813H129.917C131.462 100.461 132.651 96.9314 133.454 93.2358H30.9105C31.7132 96.9314 32.9121 100.461 34.4472 103.813Z" fill="#CF2B28"/>
<path d="M40.1375 113.384C43.5601 117.949 47.7137 121.919 52.4142 125.152H111.957C116.658 121.919 120.806 117.949 124.228 113.384H40.1375Z" fill="#CF2B28"/>
<path d="M80.2383 29.5879C52.151 30.6471 29.6897 53.6828 29.6897 81.9664C29.6897 82.585 29.7131 83.1847 29.7336 83.8033H80.2383V29.5879Z" fill="#1D3C68"/>
<path d="M36.7499 68.6197L35.5978 69.7227L35.8639 71.3028L34.4545 70.5412L33.0261 71.3028L33.3039 69.7227L32.1518 68.6197L33.7513 68.3732L34.4472 66.9492L35.1563 68.3907L36.7499 68.6197Z" fill="white"/>
<path d="M62.8386 68.6081L61.6777 69.7227L61.9424 71.3028L60.5373 70.5529L59.1075 71.3028L59.3823 69.7227L58.2332 68.6081L59.8297 68.3907L60.5256 66.9492L61.2391 68.3907L62.8386 68.6081Z" fill="white"/>
<path d="M75.8697 68.6081L74.7191 69.7227L74.9837 71.3028L73.5787 70.5529L72.1459 71.3028L72.4237 69.7227L71.2804 68.6081L72.8769 68.3907L73.5729 66.9492L74.2864 68.3907L75.8697 68.6081Z" fill="white"/>
<path d="M49.7971 68.6081L48.6334 69.7227L48.8995 71.3028L47.4944 70.5412L46.0675 71.3028L46.3438 69.7227L45.1946 68.6081L46.7927 68.3907L47.49 66.9492L48.2035 68.3907L49.7971 68.6081Z" fill="white"/>
<path d="M62.8386 52.4118L61.6777 53.5162L61.9424 55.1065L60.5373 54.3522L59.1075 55.0949L59.3823 53.5279L58.2332 52.4118L59.8297 52.1827L60.5256 50.7588L61.2391 52.1827L62.8386 52.4118Z" fill="white"/>
<path d="M75.8697 52.4118L74.7191 53.5162L74.9837 55.1065L73.5787 54.3522L72.1459 55.0949L72.4237 53.5279L71.2804 52.4118L72.8769 52.1827L73.5729 50.7588L74.2864 52.1827L75.8697 52.4118Z" fill="white"/>
<path d="M49.7971 52.4118L48.6334 53.5162L48.8995 55.1065L47.4944 54.3522L46.0675 55.0949L46.3438 53.5279L45.1946 52.4118L46.7927 52.1827L47.49 50.7588L48.2035 52.1827L49.7971 52.4118Z" fill="white"/>
<path d="M62.8386 35.8278L61.6777 36.9322L61.9424 38.5123L60.5373 37.7682L59.1075 38.5123L59.3823 36.9322L58.2332 35.8278L59.8297 35.6002L60.5256 34.1587L61.2391 35.6002L62.8386 35.8278Z" fill="white"/>
<path d="M75.8697 35.8278L74.7191 36.9322L74.9837 38.5123L73.5787 37.7682L72.1459 38.5123L72.4237 36.9322L71.2804 35.8278L72.8769 35.6002L73.5729 34.1587L74.2864 35.6002L75.8697 35.8278Z" fill="white"/>
<path d="M43.3305 76.5241L42.1755 77.6285L42.4504 79.2071L41.0454 78.4528L39.6038 79.1969L39.8904 77.6402L38.7368 76.5241L40.3377 76.295L41.0366 74.8594L41.7428 76.295L43.3305 76.5241Z" fill="white"/>
<path d="M69.4207 76.5139L68.2569 77.6285L68.5347 79.2071L67.1238 78.4528L65.691 79.1969L65.9688 77.6285L64.8167 76.5139L66.4191 76.295L67.118 74.8594L67.8256 76.295L69.4207 76.5139Z" fill="white"/>
<path d="M56.3719 76.5139L55.2228 77.6285L55.4874 79.2071L54.0765 78.4528L52.6437 79.1969L52.9274 77.6285L51.7841 76.5139L53.3865 76.295L54.0707 74.8594L54.7842 76.295L56.3719 76.5139Z" fill="white"/>
<path d="M43.3305 60.2276L42.1755 61.3423L42.4504 62.9107L41.0454 62.1608L39.6038 62.8932L39.8904 61.3423L38.7368 60.2276L40.3377 59.9811L41.0366 58.5557L41.7428 59.9986L43.3305 60.2276Z" fill="white"/>
<path d="M69.4207 60.2276L68.2569 61.3306L68.5347 62.9107L67.1238 62.1608L65.691 62.8932L65.9688 61.3423L64.8167 60.2276L66.4191 59.9811L67.118 58.5557L67.8256 59.9986L69.4207 60.2276Z" fill="white"/>
<path d="M56.3719 60.2276L55.2228 61.3306L55.4874 62.9107L54.0765 62.1608L52.6437 62.8932L52.9274 61.3423L51.7841 60.2276L53.3865 59.9811L54.0707 58.5557L54.7842 59.9986L56.3719 60.2276Z" fill="white"/>
<path d="M69.4207 43.442L68.2569 44.5464L68.5347 46.1192L67.1238 45.3751L65.691 46.1192L65.9688 44.5464L64.8167 43.442L66.4191 43.2071L67.118 41.7715L67.8256 43.2071L69.4207 43.442Z" fill="white"/>
<path d="M56.3719 43.442L55.2228 44.5464L55.4874 46.1192L54.0765 45.3751L52.6437 46.1192L52.9274 44.5464L51.7841 43.442L53.3865 43.2071L54.0707 41.7715L54.7842 43.2071L56.3719 43.442Z" fill="white"/>
<path d="M63.4321 87.3253L81.6535 75.4128L96.2798 101.239C96.6512 100.816 96.9933 100.43 97.3208 100.062C100.416 96.5664 103.708 93.1232 107.103 89.8318C114.019 83.1016 121.287 77.006 128.705 71.7172C136.707 66.1804 144.985 61.5963 153.32 58.0875L153.34 58.0788C162.117 54.6137 171.246 52.504 180.473 51.8052L180.756 53.7967C172.041 55.6248 163.636 58.7616 155.772 63.1195C148.407 67.4381 141.24 72.7356 134.471 78.8676C128.222 84.6991 122.209 91.2645 116.607 98.3682C113.864 101.832 111.244 105.411 108.82 109.009C106.179 112.867 103.83 116.645 102.018 119.939L96.1307 130.645L63.4321 87.3253Z" fill="#CF2B28"/>
<path d="M180.55 52.8103C171.589 54.6894 163.11 57.8992 155.272 62.244C147.529 66.7828 140.384 72.1518 133.794 78.1205C127.284 84.1971 121.301 90.7873 115.815 97.7437C113.067 101.215 110.448 104.789 107.985 108.445C105.527 112.039 103.084 115.911 101.135 119.453L95.999 128.792L89.0426 119.576L64.8868 87.579L81.304 76.8454L96.1028 102.977C96.7534 102.229 97.4055 101.482 98.0751 100.733C101.195 97.2082 104.441 93.819 107.808 90.5553C114.524 84.0177 121.687 77.9615 129.294 72.5385C136.987 67.2147 145.159 62.6189 153.714 59.0167C162.376 55.5969 171.453 53.4989 180.55 52.8103ZM180.398 50.8013C171.069 51.5074 161.842 53.6404 152.97 57.142L152.95 57.1507L152.929 57.1595C144.53 60.696 136.19 65.3122 128.142 70.8811L128.13 70.8898L128.119 70.8986C120.658 76.218 113.35 82.3457 106.397 89.1124C102.986 92.4184 99.676 95.8806 96.5619 99.3996C96.5282 99.4375 96.4946 99.474 96.461 99.5119L83.0628 75.8547L82.0014 73.9814L80.1972 75.1602L63.78 85.8939L61.9758 87.0727L63.2741 88.7914L87.4285 120.79L94.3863 130.006L96.2665 132.496L97.7695 129.762L102.906 120.423C104.701 117.158 107.034 113.41 109.653 109.582L109.657 109.576L109.662 109.57C112.071 105.994 114.675 102.436 117.402 98.994C122.971 91.9297 128.946 85.4081 135.166 79.6028C141.878 73.5247 148.979 68.2739 156.276 63.9947C164.048 59.6893 172.357 56.5905 180.968 54.7828L180.398 50.8013Z" fill="#F9FCFD"/>
</svg>
